<?xml version="1.0" encoding="UTF-8"?>
<svg id="Layer_1" xmlns="http://www.w3.org/2000/svg" viewBox="0 0 929 307.99">
  <defs>
    <style>
      .cls-1 {
        stroke-linecap: round;
        stroke-linejoin: round;
        stroke-width: 10px;
      }

      .cls-1, .cls-2 {
        fill: none;
        stroke: #374735;
      }

      .cls-3 {
        fill: #bda593;
      }

      .cls-2 {
        stroke-miterlimit: 10;
        stroke-width: 3px;
      }

      .cls-4 {
        font-family: Poppins-Regular, Poppins;
        font-size: 16px;
      }

      .cls-5 {
        fill: #99755c;
      }

      .cls-6 {
        fill: #374735;
      }
    </style>
  </defs>
  <rect class="cls-5" width="275" height="275"/>
  <rect class="cls-5" x="327" y="2" width="275" height="275"/>
  <rect class="cls-5" x="654" y="2" width="275" height="275"/>
  <g>
    <g>
      <path class="cls-6" d="M105.46,92.96c.09-5.76,12.06-11.08,21.92-11.52.83-.04,17.18-.53,25.64,10.59,13.44,17.65-2.65,51.86-21.92,59.82-1.7.7-5.37,2.22-6.87.74-5.35-5.24,27.14-37.93,18.39-52.02-2.43-3.91-8.11-6.51-12.82-6.5-8.05.01-11.74,7.65-18.02,5.95-3.31-.9-6.36-4.12-6.32-7.06Z"/>
      <circle class="cls-6" cx="131.66" cy="166.35" r="8.92"/>
    </g>
    <g>
      <path class="cls-6" d="M197.97,109.3c3.46-4.61,16.27-1.88,24.51,3.57.69.46,14.2,9.67,14.51,23.64.49,22.17-32.63,40.39-52.91,35.5-1.78-.43-5.65-1.36-6-3.44-1.25-7.38,44.25-14.72,45.46-31.27.34-4.59-2.73-10.04-6.55-12.8-6.52-4.72-13.99-.72-18.07-5.79-2.15-2.67-2.72-7.07-.96-9.42Z"/>
      <circle class="cls-6" cx="176.02" cy="184.06" r="8.92"/>
    </g>
    <g>
      <path class="cls-6" d="M21.38,141.33c-3.51-4.57,2.58-16.17,10.05-22.63.63-.55,13.15-11.07,26.68-7.59,21.48,5.51,30.09,42.32,19.91,60.52-.9,1.6-2.84,5.07-4.93,4.85-7.45-.79-2.23-46.59-17.84-52.21-4.33-1.56-10.4-.08-14.09,2.85-6.3,5-4.47,13.28-10.45,15.84-3.15,1.35-7.54.72-9.33-1.62Z"/>
      <circle class="cls-6" cx="87.44" cy="182.65" r="8.92"/>
    </g>
  </g>
  <rect class="cls-6" x="381" y="41" width="168" height="22"/>
  <rect class="cls-6" x="381" y="227" width="168" height="22"/>
  <path class="cls-6" d="M469.81,147.08v-3.64c34.38-3.6,61.44-41.8,61.44-88.44h-133.49c0,46.63,27.06,84.84,61.44,88.44v3.64c-34.38,3.54-61.44,41.09-61.44,86.92h133.49c0-45.83-27.06-83.39-61.44-86.92Z"/>
  <path class="cls-3" d="M488.4,117c0,3.93-.92,7.63-2.55,10.9-3.87,7.77-11.76,13.1-20.85,13.1s-16.22-4.82-20.27-12c-1.99-3.53-3.13-7.63-3.13-12"/>
  <path class="cls-3" d="M417,227c0-17.76,16.42-22.4,25-34,8.5-11.48,9.09-30,22-30,14.73,0,16.38,17.55,25,32,6.56,11.01,22,16.72,22,32"/>
  <polygon class="cls-3" points="464.35 140.44 468 138 465.74 152.28 464.35 169 462.95 152.28 460.7 138 464.35 140.44"/>
  <path class="cls-2" d="M808.24,116c-29.24,12.04-43.57,18.87-43,20.5.99,2.83,41.62-7.09,41.25-9.25-.45-2.61-61.36,2.6-61.51,9-.17,7.03,72.95,17.43,74.01,13,.53-2.21-16.33-10.4-35-10-19.32.41-40.2,10.01-39.5,16.5,1.31,12.1,77.94,16.95,79.01,11.5.98-4.99-59.89-26.03-66.01-15.5-2.66,4.57,5.43,14.42,12,19.5,22.5,17.4,60.76,4.92,61.01-2,.22-6.12-28.96-15.42-55.51-10-9.79,2-28.34,7.87-28,14,.73,13.32,90.1,21.23,91.01,16.5.36-1.86-12.8-6.6-51.51-16.5"/>
  <polyline class="cls-1" points="802.11 39.6 783.24 69.5 805.41 69.5 777.37 106.97"/>
  <polyline class="cls-1" points="672.58 75.81 695.3 102.89 702.06 81.78 729.19 119.92"/>
  <polyline class="cls-1" points="907.02 72.23 874.72 86.61 893.15 98.93 849.02 114.51"/>
  <text class="cls-4" transform="translate(51.68 298.84)"><tspan x="0" y="0">Difficult to understand</tspan></text>
  <text class="cls-4" transform="translate(401.68 298.84)"><tspan x="0" y="0">Time consuming</tspan></text>
  <text class="cls-4" transform="translate(757.68 298.84)"><tspan x="0" y="0">Stressful</tspan></text>
</svg>